# xmcd
#
# Track frame offsets: 
#        150
#        17855
#        33167
#        51380
#
# Disc length: 864 seconds
#
# Revision: 2
# Processed by: cddbd v1.5.2PL0 Copyright (c) Steve Scherf et al.
# Submitted via: ExactAudioCopy v0.99pb5
#
DISCID=2c035e04
DTITLE=Simply Red - Montreaux EP
DYEAR=1992
DGENRE=Jazz
TTITLE0=Love For Sale
TTITLE1=Drowning In My Own Tears
TTITLE2=Granma's Hands
TTITLE3=Lady Godiva's Room
EXTD=
EXTT0=Recorded Live At The Monteaux Jazz Festival, 8/07/92.
EXTT1=Recorded Live At The Monteaux Jazz Festival, 8/07/92.
EXTT2=Recorded Live At The Monteaux Jazz Festival, 8/07/92.
EXTT3=Recorded Live At The Monteaux Jazz Festival, 8/07/92.
PLAYORDER=
